:FULLY-SPECIFIED
:FORCE-ALL-JOINTS-BE-3DOF
:DEGREES
781
root 1.60181 16.3851 18.6467 -14.6732 76.353 339.376
lfemur -35.8508 10.6122 -13.2647
ltibia 50.0838 0 0
lfoot -21.9811 19.4744 0
ltoes 15.7348 0 0
rfemur -15.212 -22.1199 21.2857
rtibia 51.1562 0 0
rfoot -18.5813 -31.2517 0
rtoes -25.6912 0 0
lowerback 1.15683 4.64536 -0.567119
upperback -0.816074 6.18228 -3.69238
thorax -1.13573 3.10133 -3.59318
lowerneck -5.43551 -6.49798 -0.530865
upperneck -2.15073 -8.56685 4.93147
head 0.489926 -4.21191 1.42636
lclavicle 3.91249e-14 9.25887e-15 0
lhumerus -56.0399 -11.6938 94.9268
lradius 70.7265 0 0
lwrist 13.0422 0 0
lhand -21.74 -4.77899 0
lfingers 7.12502 0 0
lthumb 4.65973 25.1441 0
rclavicle 3.91249e-14 9.25887e-15 0
rhumerus -31.3041 47.9586 -113.042
rradius 79.9634 0 0
rwrist 5.61569 0 0
rhand -24.0407 -20.1599 0
rfingers 7.12502 0 0
rthumb 2.43824 -770.134 0
782
root 1.57569 16.4213 18.7281 -10.8358 72.7808 343.435
lfemur -34.7886 7.74696 -12.1068
ltibia 49.5854 0 0
lfoot -21.8725 18.5606 0
ltoes 14.0572 0 0
rfemur -15.0495 -20.9493 20.9482
rtibia 50.644 0 0
rfoot -18.1553 -29.5864 0
rtoes -26.4002 0 0
lowerback 1.17023 4.62845 -0.263976
upperback -0.716255 6.16494 -3.56134
thorax -1.02419 3.09028 -3.62042
lowerneck -5.50419 -6.32748 -0.373905
upperneck -1.79443 -8.36938 4.63565
head 0.58528 -4.11437 1.30504
lclavicle 2.74537e-14 1.25832e-14 0
lhumerus -56.1403 -11.6905 95.0199
lradius 70.7058 0 0
lwrist 13.7252 0 0
lhand -22.3846 -4.29762 0
lfingers 7.12502 0 0
lthumb 4.03729 25.6388 0
rclavicle 2.74537e-14 1.25832e-14 0
rhumerus -31.9673 47.9163 -113.608
rradius 79.8117 0 0
rwrist 5.33925 0 0
rhand -24.1513 -20.3121 0
rfingers 7.12502 0 0
rthumb 2.33135 -770.285 0
783
root 1.55375 16.4548 18.8102 -7.88099 69.0363 346.564
lfemur -33.8912 4.9904 -11.0269
ltibia 49.2043 0 0
lfoot -21.815 17.5199 0
ltoes 12.5244 0 0
rfemur -14.9233 -19.7922 20.6454
rtibia 50.1571 0 0
rfoot -17.7647 -27.9165 0
rtoes -26.9859 0 0
lowerback 1.15101 4.61406 0.0373312
upperback -0.630407 6.15055 -3.42705
thorax -0.909193 3.08087 -3.64123
lowerneck -5.57091 -6.15691 -0.221252
upperneck -1.44379 -8.17118 4.34473
head 0.679407 -4.01639 1.18622
lclavicle 1.5289e-14 1.50358e-14 0
lhumerus -56.228 -11.6623 95.0907
lradius 70.6723 0 0
lwrist 14.431 0 0
lhand -22.9455 -3.81432 0
lfingers 7.12502 0 0
lthumb 3.4957 26.1338 0
rclavicle 1.5289e-14 1.50358e-14 0
rhumerus -32.6164 47.8828 -114.137
rradius 79.6264 0 0
rwrist 5.07814 0 0
rhand -24.1975 -20.4885 0
rfingers 7.12502 0 0
rthumb 2.28664 -770.46 0
784
root 1.53495 16.4843 18.8943 -5.32328 65.4341 349.209
lfemur -33.2516 2.49978 -10.0659
ltibia 48.9725 0 0
lfoot -21.7502 16.296 0
ltoes 11.2259 0 0
rfemur -14.8638 -18.6736 20.3976
rtibia 49.6745 0 0
rfoot -17.5074 -26.3426 0
rtoes -27.4055 0 0
lowerback 1.08115 4.6032 0.320597
upperback -0.569936 6.13986 -3.29535
thorax -0.793395 3.07356 -3.65173
lowerneck -5.63114 -5.9913 -0.0790318
upperneck -1.1394 -7.97624 4.08076
head 0.760427 -3.92013 1.07859
lclavicle 3.14896e-15 1.66585e-14 0
lhumerus -56.3027 -11.5988 95.1252
lradius 70.6253 0 0
lwrist 15.1026 0 0
lhand -23.3368 -3.3568 0
lfingers 7.12502 0 0
lthumb 3.11782 26.5993 0
rclavicle 3.14896e-15 1.66585e-14 0
rhumerus -33.2212 47.8204 -114.608
rradius 79.4101 0 0
rwrist 4.84055 0 0
rhand -24.2089 -20.6969 0
rfingers 7.12502 0 0
rthumb 2.27562 -770.666 0
785
root 1.51824 16.5089 18.9817 -2.67731 62.2886 351.818
lfemur -32.9625 0.432324 -9.26479
ltibia 48.9216 0 0
lfoot -21.62 14.8327 0
ltoes 10.2513 0 0
rfemur -14.9017 -17.6181 20.2256
rtibia 49.1753 0 0
rfoot -17.4814 -24.9648 0
rtoes -27.6164 0 0
lowerback 0.942677 4.59689 0.569618
upperback -0.546254 6.13361 -3.1721
thorax -0.67945 3.06884 -3.64802
lowerneck -5.68039 -5.8357 0.0466325
upperneck -0.921863 -7.78855 3.86576
head 0.816457 -3.82773 0.990877
lclavicle -8.44835e-15 1.74931e-14 0
lhumerus -56.3639 -11.4893 95.1099
lradius 70.5643 0 0
lwrist 15.6832 0 0
lhand -23.4728 -2.9528 0
lfingers 7.12502 0 0
lthumb 2.98652 27.006 0
rclavicle -8.44835e-15 1.74931e-14 0
rhumerus -33.7516 47.6912 -115.002
rradius 79.1657 0 0
rwrist 4.63468 0 0
rhand -24.2149 -20.945 0
rfingers 7.12502 0 0
rthumb 2.26979 -770.913 0
786
root 1.50466 16.5273 19.072 -0.288588 59.4875 353.992
lfemur -33.1125 -1.26811 -8.61736
ltibia 49.1378 0 0
lfoot -21.4569 12.9937 0
ltoes 9.65106 0 0
rfemur -15.1126 -16.6248 20.1504
rtibia 48.694 0 0
rfoot -17.7072 -23.7439 0
rtoes -27.5836 0 0
lowerback 0.676562 4.59664 0.785613
upperback -0.576529 6.13315 -3.05391
thorax -0.552233 3.06746 -3.62294
lowerneck -5.71833 -5.69059 0.156085
upperneck -0.782392 -7.60902 3.69693
head 0.85016 -3.73956 0.922079
lclavicle -2.03859e-14 1.69831e-14 0
lhumerus -56.4174 -11.3213 95.0392
lradius 70.5106 0 0
lwrist 16.1615 0 0
lhand -23.3519 -2.62056 0
lfingers 7.12502 0 0
lthumb 3.10335 27.337 0
rclavicle -2.03859e-14 1.69831e-14 0
rhumerus -34.2335 47.4946 -115.317
rradius 78.8895 0 0
rwrist 4.46065 0 0
rhand -24.1892 -21.2235 0
rfingers 7.12502 0 0
rthumb 2.29461 -771.191 0
787
root 1.4955 16.5401 19.164 1.29623 56.7137 355.2
lfemur -33.6486 -2.76 -8.08518
ltibia 49.6213 0 0
lfoot -21.3235 10.7834 0
ltoes 9.36258 0 0
rfemur -15.4945 -15.6713 20.161
rtibia 48.2605 0 0
rfoot -18.1045 -22.5776 0
rtoes -27.3336 0 0
lowerback 0.279139 4.60207 0.983392
upperback -0.656345 6.13825 -2.93445
thorax -0.404341 3.06927 -3.57755
lowerneck -5.74888 -5.55165 0.254885
upperneck -0.681983 -7.43441 3.55373
head 0.872984 -3.65384 0.864115
lclavicle -3.34184e-14 1.4906e-14 0
lhumerus -56.4655 -11.0998 94.9234
lradius 70.4718 0 0
lwrist 16.5843 0 0
lhand -23.0497 -2.34154 0
lfingers 7.12502 0 0
lthumb 3.39519 27.613 0
rclavicle -3.34184e-14 1.4906e-14 0
rhumerus -34.7021 47.2639 -115.57
rradius 78.578 0 0
rwrist 4.31121 0 0
rhand -24.0967 -21.5224 0
rfingers 7.12502 0 0
rthumb 2.3839 -771.489 0
